<svg width="140" height="108" viewBox="0 0 140 108" fill="none" xmlns="http://www.w3.org/2000/svg">
<path d="M122.909 0.728745H17.1198C7.67639 0.728745 0 8.40514 0 17.8485V90.1515C0 99.5949 7.67639 107.271 17.1198 107.271H122.88C132.324 107.271 140 99.5949 140 90.1515V17.8775C140.029 8.4341 132.353 0.728745 122.909 0.728745ZM132.208 90.1515C132.208 95.2787 128.036 99.45 122.909 99.45H17.1198C11.9926 99.45 7.82123 95.2787 7.82123 90.1515V17.8775C7.82123 12.7503 11.9926 8.57894 17.1198 8.57894H122.88C128.007 8.57894 132.179 12.7503 132.179 17.8775V90.1515H132.208Z" fill="white" fill-opacity="0.4"/>
</svg>
